<svg width="429" height="932" viewBox="0 0 429 932" fill="none" xmlns="http://www.w3.org/2000/svg">
<path d="M109 213.5C63 259.5 17.8333 200.333 1 165V0H184C165.5 14.5 229.4 42 207 88C179 145.5 166.5 156 109 213.5Z" fill="#4F378B"/>
<path d="M344 248.576C276.4 216.576 172.577 440 155.5 465C107 536 82.6 660.1 129 730.5C187 818.5 201.389 829.176 286 800C344 780 407.667 673 428.5 619V302C406.167 285.833 411.6 280.576 344 248.576Z" fill="#4F378B"/>
<path d="M129 865.5C100.5 828.5 57 803.7 1 854.5V931.5H184L129 865.5Z" fill="#4F378B"/>
<path d="M109 213.5C63 259.5 17.8333 200.333 1 165V0H184C165.5 14.5 229.4 42 207 88C179 145.5 166.5 156 109 213.5Z" stroke="black"/>
<path d="M344 248.576C276.4 216.576 172.577 440 155.5 465C107 536 82.6 660.1 129 730.5C187 818.5 201.389 829.176 286 800C344 780 407.667 673 428.5 619V302C406.167 285.833 411.6 280.576 344 248.576Z" stroke="black"/>
<path d="M129 865.5C100.5 828.5 57 803.7 1 854.5V931.5H184L129 865.5Z" stroke="black"/>
</svg>
