<svg width="16" height="24" viewBox="0 0 16 24" fill="none" xmlns="http://www.w3.org/2000/svg">
<path d="M17.8437 8.73595C18.4948 8.05236 18.4948 6.9422 17.8437 6.25861C17.1927 5.57501 16.1354 5.57501 15.4843 6.25861L9.99996 12.0227L4.51038 6.26407C3.85933 5.58048 2.80204 5.58048 2.151 6.26407C1.49996 6.94767 1.49996 8.05782 2.151 8.74142L7.64058 14.5L2.15621 20.2641C1.50517 20.9477 1.50517 22.0578 2.15621 22.7414C2.80725 23.425 3.86454 23.425 4.51558 22.7414L9.99996 16.9774L15.4895 22.736C16.1406 23.4195 17.1979 23.4195 17.8489 22.736C18.5 22.0524 18.5 20.9422 17.8489 20.2586L12.3593 14.5L17.8437 8.73595Z" fill="black"/>
</svg>
