<svg width="19" height="18" viewBox="0 0 19 18" fill="none" xmlns="http://www.w3.org/2000/svg">
<path d="M10.4248 5V1C10.4248 0.716667 10.5208 0.479 10.7128 0.287C10.9041 0.0956666 11.1414 0 11.4248 0H17.4248C17.7081 0 17.9454 0.0956666 18.1368 0.287C18.3288 0.479 18.4248 0.716667 18.4248 1V5C18.4248 5.28333 18.3288 5.52067 18.1368 5.712C17.9454 5.904 17.7081 6 17.4248 6H11.4248C11.1414 6 10.9041 5.904 10.7128 5.712C10.5208 5.52067 10.4248 5.28333 10.4248 5ZM0.424774 9V1C0.424774 0.716667 0.520774 0.479 0.712774 0.287C0.904108 0.0956666 1.14144 0 1.42477 0H7.42477C7.70811 0 7.94577 0.0956666 8.13777 0.287C8.32911 0.479 8.42477 0.716667 8.42477 1V9C8.42477 9.28333 8.32911 9.52067 8.13777 9.712C7.94577 9.904 7.70811 10 7.42477 10H1.42477C1.14144 10 0.904108 9.904 0.712774 9.712C0.520774 9.52067 0.424774 9.28333 0.424774 9ZM10.4248 17V9C10.4248 8.71667 10.5208 8.479 10.7128 8.287C10.9041 8.09567 11.1414 8 11.4248 8H17.4248C17.7081 8 17.9454 8.09567 18.1368 8.287C18.3288 8.479 18.4248 8.71667 18.4248 9V17C18.4248 17.2833 18.3288 17.5207 18.1368 17.712C17.9454 17.904 17.7081 18 17.4248 18H11.4248C11.1414 18 10.9041 17.904 10.7128 17.712C10.5208 17.5207 10.4248 17.2833 10.4248 17ZM0.424774 17V13C0.424774 12.7167 0.520774 12.479 0.712774 12.287C0.904108 12.0957 1.14144 12 1.42477 12H7.42477C7.70811 12 7.94577 12.0957 8.13777 12.287C8.32911 12.479 8.42477 12.7167 8.42477 13V17C8.42477 17.2833 8.32911 17.5207 8.13777 17.712C7.94577 17.904 7.70811 18 7.42477 18H1.42477C1.14144 18 0.904108 17.904 0.712774 17.712C0.520774 17.5207 0.424774 17.2833 0.424774 17Z" fill="white"/>
</svg>
