<svg width="18" height="20" viewBox="0 0 18 20" fill="none" xmlns="http://www.w3.org/2000/svg">
<path d="M17.3661 15.7479L17.364 15.7516C17.2768 15.904 17.1506 16.0304 16.9984 16.118C16.8463 16.2056 16.6735 16.2511 16.498 16.25H16.4948L1.64479 16.25L1.64161 16.25C1.46604 16.2511 1.29332 16.2056 1.14115 16.118C0.988982 16.0304 0.862821 15.904 0.775589 15.7516L0.775605 15.7516L0.773475 15.7479C0.68479 15.596 0.638575 15.423 0.639667 15.2471C0.64076 15.0712 0.68912 14.8989 0.779685 14.748L0.779743 14.7481L0.783852 14.741C1.38936 13.6942 2.06979 11.7852 2.06979 8.50001L2.06979 7.75001L2.06979 7.74938C2.06864 6.82989 2.2489 5.9192 2.60024 5.06947C2.95159 4.21975 3.46711 3.44769 4.11729 2.79751C4.76747 2.14733 5.53954 1.6318 6.38926 1.28046C7.23898 0.929112 8.14967 0.748854 9.06917 0.750006H9.06979H9.1243C12.9493 0.77713 16.0698 3.95093 16.0698 7.83438V8.50001C16.0698 11.7852 16.7502 13.6942 17.3557 14.741L17.3557 14.741L17.3599 14.748C17.4505 14.8989 17.4988 15.0712 17.4999 15.2471C17.501 15.423 17.4548 15.596 17.3661 15.7479ZM6.06042 18.75H12.0604C12.1267 18.75 12.1903 18.7763 12.2372 18.8232C12.2841 18.8701 12.3104 18.9337 12.3104 19C12.3104 19.0663 12.2841 19.1299 12.2372 19.1768C12.1903 19.2237 12.1267 19.25 12.0604 19.25H6.06042C5.99411 19.25 5.93052 19.2237 5.88364 19.1768C5.83676 19.1299 5.81042 19.0663 5.81042 19C5.81042 18.9337 5.83676 18.8701 5.88364 18.8232C5.93052 18.7763 5.99411 18.75 6.06042 18.75Z" stroke="white"/>
</svg>
