<svg width="19" height="21" viewBox="0 0 19 21" fill="none" xmlns="http://www.w3.org/2000/svg">
<path d="M18.2281 16.5C18.0969 16.7293 17.907 16.9196 17.678 17.0513C17.4491 17.1831 17.1892 17.2517 16.925 17.25H2.075C1.81081 17.2517 1.55092 17.1831 1.32195 17.0513C1.09297 16.9196 0.903133 16.7293 0.771873 16.5C0.637998 16.2707 0.568234 16.0096 0.569883 15.744C0.571533 15.4785 0.644535 15.2183 0.781248 14.9906C1.33437 14.0344 2 12.2156 2 9.00001V8.25001C1.99876 7.26474 2.19192 6.28892 2.56839 5.37842C2.94486 4.46792 3.49726 3.64064 4.19395 2.94395C4.89063 2.24727 5.71791 1.69487 6.62841 1.3184C7.53891 0.941923 8.51474 0.748772 9.5 0.750006H9.55625C13.6625 0.778131 17 4.18126 17 8.33438V9.00001C17 12.2156 17.6656 14.0344 18.2187 14.9906C18.3555 15.2183 18.4285 15.4785 18.4301 15.744C18.4318 16.0096 18.362 16.2707 18.2281 16.5ZM12.4906 18.75H6.49062C6.29171 18.75 6.10095 18.829 5.96029 18.9697C5.81964 19.1103 5.74062 19.3011 5.74062 19.5C5.74062 19.6989 5.81964 19.8897 5.96029 20.0303C6.10095 20.171 6.29171 20.25 6.49062 20.25H12.4906C12.6895 20.25 12.8803 20.171 13.021 20.0303C13.1616 19.8897 13.2406 19.6989 13.2406 19.5C13.2406 19.3011 13.1616 19.1103 13.021 18.9697C12.8803 18.829 12.6895 18.75 12.4906 18.75Z" fill="white"/>
</svg>
