<svg width="20" height="21" viewBox="0 0 20 21" fill="none" xmlns="http://www.w3.org/2000/svg">
<g id="screwdriver-wrench-solid 1" clip-path="url(#clip0_349_2354)">
<path id="Vector" d="M3.06992 0.695228C2.69885 0.406172 2.17153 0.441328 1.83562 0.773351L0.273202 2.33581C-0.0588111 2.66784 -0.0939654 3.19517 0.191175 3.57016L3.316 7.63257C3.49177 7.86303 3.7691 7.99974 4.05815 7.99974H6.17131L10.4289 12.2575C9.8547 13.3902 10.0383 14.8121 10.9875 15.7574L15.3622 20.1323C15.8505 20.6205 16.6434 20.6205 17.1316 20.1323L19.6315 17.6323C20.1198 17.1441 20.1198 16.3511 19.6315 15.8628L15.2567 11.4879C14.3115 10.5427 12.8897 10.3552 11.7569 10.9294L7.49936 6.67165V4.55842C7.49936 4.26546 7.36265 3.99203 7.1322 3.81625L3.06992 0.695228ZM0.77708 15.9722C0.281014 16.4683 -0.000220626 17.1441 -0.000220626 17.8472C-0.000220626 19.312 1.18721 20.4995 2.65198 20.4995C3.35506 20.4995 4.03081 20.2182 4.52687 19.7221L9.12818 15.1207C8.82351 14.3043 8.77664 13.4176 8.98756 12.5778L6.57754 10.1677L0.77708 15.9722ZM19.9987 6.12479C19.9987 5.71464 19.9557 5.31621 19.8737 4.93341C19.7799 4.49592 19.2448 4.38264 18.9284 4.69904L16.4325 7.19508C16.3153 7.31226 16.1551 7.37867 15.9911 7.37867L13.749 7.37476C13.4053 7.37476 13.1241 7.09352 13.1241 6.74977V4.50764C13.1241 4.34358 13.1905 4.18343 13.3076 4.06624L15.8036 1.57021C16.12 1.25381 16.0067 0.718665 15.5692 0.624917C15.1825 0.542888 14.7841 0.49992 14.374 0.49992C11.2687 0.49992 8.7493 3.01939 8.7493 6.12479V6.15604L12.0811 9.48799C13.4873 9.13253 15.0419 9.50752 16.1434 10.6091L16.7567 11.2223C18.6706 10.3239 19.9987 8.37864 19.9987 6.12479ZM2.18716 17.3745C2.18716 17.1259 2.28593 16.8874 2.46173 16.7116C2.63754 16.5358 2.87598 16.437 3.12461 16.437C3.37323 16.437 3.61168 16.5358 3.78748 16.7116C3.96329 16.8874 4.06205 17.1259 4.06205 17.3745C4.06205 17.6232 3.96329 17.8616 3.78748 18.0374C3.61168 18.2132 3.37323 18.312 3.12461 18.312C2.87598 18.312 2.63754 18.2132 2.46173 18.0374C2.28593 17.8616 2.18716 17.6232 2.18716 17.3745Z" fill="black"/>
</g>
<defs>
<clipPath id="clip0_349_2354">
<rect width="20" height="20" fill="white" transform="translate(0 0.5)"/>
</clipPath>
</defs>
</svg>
