<svg width="16" height="21" viewBox="0 0 16 21" fill="none" xmlns="http://www.w3.org/2000/svg">
<path d="M4.82857 1.19141C5.02143 0.765625 5.41786 0.5 5.85 0.5H10.15C10.5821 0.5 10.9786 0.765625 11.1714 1.19141L11.4286 1.75H14.8571C15.4893 1.75 16 2.30859 16 3C16 3.69141 15.4893 4.25 14.8571 4.25H1.14286C0.510714 4.25 0 3.69141 0 3C0 2.30859 0.510714 1.75 1.14286 1.75H4.57143L4.82857 1.19141ZM1.14286 5.5H14.8571V18C14.8571 19.3789 13.8321 20.5 12.5714 20.5H3.42857C2.16786 20.5 1.14286 19.3789 1.14286 18V5.5ZM4.57143 8C4.25714 8 4 8.28125 4 8.625V17.375C4 17.7188 4.25714 18 4.57143 18C4.88571 18 5.14286 17.7188 5.14286 17.375V8.625C5.14286 8.28125 4.88571 8 4.57143 8ZM8 8C7.68571 8 7.42857 8.28125 7.42857 8.625V17.375C7.42857 17.7188 7.68571 18 8 18C8.31429 18 8.57143 17.7188 8.57143 17.375V8.625C8.57143 8.28125 8.31429 8 8 8ZM11.4286 8C11.1143 8 10.8571 8.28125 10.8571 8.625V17.375C10.8571 17.7188 11.1143 18 11.4286 18C11.7429 18 12 17.7188 12 17.375V8.625C12 8.28125 11.7429 8 11.4286 8Z" fill="black"/>
</svg>
